<?xml version="1.0" encoding="UTF-8"?>
<svg version="1.1" viewBox="0 0 964 808" width="241" height="202" xmlns="http://www.w3.org/2000/svg">
<path transform="translate(580,61)" d="m0 0h33l19 3 22 6 10 4 1 6-8 17-10 16-12 16-7 8-11 8-10 6-20 8-20 6-24 4-45 4-1 9 13 1 44 5 23 4 23 6 24 10 16 9 10 7 11 9 16 16 13 17 11 19 9 24 5 21 3 23 1 19-3 3-26 6-25 6-12 6-10 9-11 12-10 4-21 4-17 2-21 8-9 6-3 3h-2l-2 4-7 10-4 11v19l3 6 6 5 15 4 12 2 47 1 14 1 6 11 8 7 13 5 35 8 14 6 6 4v26l-2 19-4 23-6 21-8 18-12 21-10 13-12 14-23 23-11 9-13 9-14 8-4 3 9 2 75 7 38 5 27 5 10 4 1 4-8 4-17 5-26 4-40 4-28 2-24 1h-124l-140-1-30-1-40-3-29-4-20-5-9-5v-4l9-4 12-3 31-4 44-4 38-3h6l-4-4-15-9-18-14-11-8-10-9-14-14-13-17-9-13-9-17-7-19-6-20-6-36-2-21v-13l35-9 30-8 13-5 14-10 6-5 4-2 38-4 18-4 18-6 8-4 4-6v-7l-4-11-10-16-11-14-7-4-18-6-13 1h-14l-7-2-10-9-11-11-11-8-13-5-26-6-31-6-3-2 7-49 4-17 6-16 8-16 9-15 13-16 12-13 11-9 18-12 16-9 15-6 19-5 27-5 16-2 36-1h15l-3-14-4-10-11-14-8-9-4-8 2-7 8-5 7-3h7l5 5 7 10 8 16 3 3 3-10 7-17 9-16 8-10 8-8 13-9 17-9 18-6z" fill="#0D0D13"/>
<path transform="translate(580,61)" d="m0 0h33l19 3 22 6 10 4 1 6-8 17-10 16-12 16-7 8-11 8-10 6-20 8-20 6-24 4-45 4-1 9 13 1 44 5 23 4 23 6 24 10 16 9 10 7 11 9 16 16 13 17 11 19 9 24 5 21 3 23 1 19-3 3-26 6-25 6-12 6-10 9-11 12-10 4-15 3h-16l-7-3-11-9-14-9-8-4-12-3h-7l-12 5-27 16-8 6-7 1-9-6-31-20-8-4-8-2-11 1-19 10-15 10-14 11-4 1h-9l-9-3-13-13-8-6v-2l-4-2-9-5-11-2-26-6-31-6-3-2 7-49 4-17 6-16 8-16 9-15 13-16 12-13 11-9 18-12 16-9 15-6 19-5 27-5 16-2 36-1h15l-3-14-4-10-11-14-8-9-4-8 2-7 8-5 7-3h7l5 5 7 10 8 16 3 3 3-10 7-17 9-16 8-10 8-8 13-9 17-9 18-6z" fill="#0D0D13"/>
<path transform="translate(425,209)" d="m0 0h23l18 1 2 2 1 9v10l-2 3h-42l-3 3 1 7 4 2 4 4 13 4 18 4 8 1h17l25-4 18-6 12-6 3-3v-3l-5-2-47-2-1-1v-9l4-13 1-1h10l17 3 22 3 29 5 13 5 14 7 9 6 7 3 11 7v3l3 1 6 7 2 7-4 18-3 14-4 23-4 16-5 12-3 7h-2l-2 5-5 5-6 8-6 9-3 2h-9v-2l-7-2-7-4-1-2-15-9-6-4h-14l-16 9-12 8-17 10-3 1h-8l-12-6-15-10-14-8-21-7h-7l-13 5-7 6-12 8-10 8h-2v2l-2 1h-11l-26-13-9-4-15-5-5-3-32-7-3-3v-9l7-24 6-16 2-10h2l1-6h2l1-6 9-15 9-11 8-6 5-4 13-9 17-11 15-6 16-5 20-4z" fill="#EE0140"/>
<path transform="translate(416,388)" d="m0 0 10 1 10 4 13 8 20 13 9 6 7-1 13-9 19-11 12-6 3-1 13 1 12 5 15 9 10 9 5 3 14 2v1l-17 2-21 8-9 6-3 3h-2l-2 4-7 10-4 11v19l3 6 6 5 15 4 12 2 47 1 14 1 6 11 8 7 13 5 35 8 14 6 6 4v26l-2 19-4 23-6 21-8 18-12 21-10 13-12 14-23 23-11 9-13 9-14 8-4 3 9 2 75 7 38 5 27 5 10 4 1 4-8 4-17 5-26 4-40 4-28 2h-20l2-2 38-2 11-3 28-1 31-4 16-4 4-3 1-3-13-3-24-4-23-3-3-1-31-2-2-1-46-3-2-1-9-1-3-3 1-5 13-7 6-3 11-8 5-5 4-2v-2l10-7 1-2h2l2-4 7-8h2l2-4 9-10 7-10h2l1-4 10-16 3-4 4-11 5-12 3-11 2-10 3-10 2-17 2-13 2-23-10-3-19-6-15-3-6-2-17-6-8-6-4-4v-2l-7-2h-8l-8 1v-2l-4 1-7-1-4 2h-5l1 3h8l9 1 5 3v2l4 2 11 7 10 9 15 10 4 5-2 4-7 3-22 4-36 4-7-1-4-5-5 2-5 3-6 2-15 10-7 2h-10l-12-4-15-8-10-6-10-3-11 1-13 4-23 10-14 4-8 1h-13l-10-4-12-13-6-7-3-2h-7l-7 4-6 5-6 1v2l-11 3h-16l-16-4-13-2-9-6-1-3 4-5 4-3 13-3 15-5 9-6 15-6 19-5 8-2 10-6 9-6h2v-3h-12l-7 2h-14l-13 2-10 5-10 7-5 4-10 4-9 3-20 7-32 8-2 1-1 6 1 19 2 5 3 19 2 6 2 13 2 5 6 18 2 5 2 9 4 7 3 7 3 2 1 5 3 1 2 5 6 7v2h2v2l4 2 6 10 6 5 7 8 11 7 7 5 4 5 5 2v2l4 2 3 1 2 3 7 3 6 4 3 4v4l-5 2-9 1-2 1-36 2-24 2h-9l-6-1v-1l44-4 38-3h6l-4-4-15-9-18-14-11-8-10-9-14-14-13-17-9-13-9-17-7-19-6-20-6-36-2-21v-13l35-9 30-8 13-5 14-10 6-5 4-2 38-4 18-4 18-6 8-4 4-6v-7l-4-11-10-16-11-14-7-4-18-6-13 1h-14l-7-2-10-9-11-11-11-8-7-3v-1l7 1 11 7 5 5 10 9 8 7 7 2h9l7-3 12-10 18-11 15-8z" fill="#1C262E"/>
<path transform="translate(266,577)" d="m0 0h9l13 4 19 4 17 3 10 1h13l9-1 15 2 14 7 14 5 5 1h12l13-3 18-6 11-3 7-1h17l16 2 18 5 15 4 7 1h12l4-1 20-3 5 2v15l-4 13-7 12h-2l-2 6-6 8-9 13-4 7-7 10-7 11-8 11-10 9-9 6-7 3-16 8-11 4-10 5-12 3-9 4h-8l-25-4-22-7-12-5-19-10-18-13-8-6-7-5v-2h-2l-3-5-12-14-5-5-4-6v-4h-2l-4-8v-2h-2l-4-9v-2h-2v-3h-2l-6-16-1-5-2-1-3-14-2-12v-10z" fill="#ED013F"/>
<path transform="translate(365,555)" d="m0 0h7l4 3-1 2-7-1-2 5-2 6 4 9v3l6 2 11 6v2l18 6h10l17-4 18-7 12-4h12l22 3 17 5 15 4 7 1h9l10-2 15-5 5-2 8-1 20 2h16l50-8 12-3h5l4 3v7l-4 18-5 19-4 9-4 10-9 16-8 11h-2l-2 4-7 8-5 6-4 3h-2l-2 4-11 11-8 6-14 9-24 12-17 6-11 4-22 6-24 4-11 1h-35l-25-3-22-5v-2l-13-2-17-6-17-9-8-4-16-11-14-12-4-4v-2h-2v-2h-2v-2h-2v-2h-2l-1-2-5-3v-4h-2l-2-4-3-3-8-16-2-3v-3l-4-2-4-9-4-10-1-5h-2l-4-16-5-21v-14l3-3h7l22 6 16 4 26 3 16-2v-2l3-2 2-5-11 1h-30l-14-5-5-1 1-2 12 3 11 2h15l11-2v-2l9-4 7-6zm-99 22-2 3v10l3 15 2 11 2 1 3 11 4 10h2v3h2l3 9 1 2h2l2 6 2 4h2l1 5 6 9 6 5 9 11 2 4h2l2 4 9 6 15 11 11 7 19 10 20 7 14 4 21 3h8l12-5 11-3 13-6 10-4 15-8 7-3 13-10 7-8 10-15 7-11 4-5 5-9 8-11 5-8v-2h2l8-14 3-11v-15l-5-2-23 3-5 1h-8l-15-3-14-4-11-3-16-2h-17l-16 3-14 5-13 4-6 1h-12l-13-4-15-6-5-3-19-2-9 1h-9l-23-3-19-4-11-3-6-2z" fill="#540427"/>
<path transform="translate(425,209)" d="m0 0h23l18 1 2 2 1 9v10l-2 3h-42l-3 3 1 7 4 2 4 4 13 4 18 4 8 1h17l25-4 18-6 12-6 3-3v-3l-5-2-47-2-1-1v-9l4-13 1-1h10l17 3 22 3 29 5 13 5 14 7 9 6 7 3 11 7v3l3 1 6 7 2 7-4 18-3 14-4 23-4 16-5 12-3 7h-2l-2 5-5 5-6 8-6 9-3 2h-9v-2l-7-2-7-4-1-2-15-9-6-4h-14l-16 9-12 8-17 10-3 1h-8l-12-6-15-10-14-8-21-7h-7l-13 5-7 6-12 8-10 8h-2v2l-2 1h-11l-26-13-9-4-15-5-5-3-32-7-3-3v-9l7-24 6-16 2-10h2l1-6h2l1-6 9-15 9-11 8-6 5-4 13-9 17-11 15-6 16-5 20-4zm-21 7-13 1-21 5-9 3-1 2-6 3v2l-6 2v2h-3v2h-3v2l-5 1-1 2-7 3-7 4-4 4v2l-4 2-1 2-4 2-2 5-2 11-3 7-3 16-6-2-1-5 2-2v-3h-2l-2-2-4 3-1 3-2 1v3h-2l-7 14-8 25-2 10v7l4 3 17 2 9 3h10v2l5 2h8v2l9 4h3v2l15 4 11 2 3 2h5v-2l5-2 10-7 10-6 8-5 9-3 8-1 10 3 19 7h3v2l9 5 10 7 7 5 13 4 13-7 20-15 7-4v-2l5-2 5-3 4-5-1-4-4-2 2-6v-18l3-3-1-11 2-3v-13l-6-4v2h-2l-1-5h3l1 2v-2h2l1-5-1-9 1-4 1-3-5-1-21 3-16 2h-28l-20-4-12-5-5-3-7-3-5-6-1-2v-6l1-4 9-3 7-1 28-1 1-5-3-3h-8l-8-3-1 1-9-2z" fill="#CB033C"/>
<path transform="translate(266,577)" d="m0 0h9l13 4 19 4 17 3 10 1h13l9-1 15 2 14 7 14 5 5 1h12l13-3 18-6 11-3 7-1h17l16 2 18 5 15 4 7 1h12l4-1 20-3 5 2v15l-4 13-7 12h-2l-2 6-6 8-9 13-4 7-7 10-7 11-8 11-10 9-9 6-7 3-16 8-11 4-10 5-12 3-9 4h-8l-25-4-22-7-12-5-19-10-18-13-8-6-7-5v-2h-2l-3-5-12-14-5-5-4-6v-4h-2l-4-8v-2h-2l-4-9v-2h-2v-3h-2l-6-16-1-5-2-1-3-14-2-12v-10zm8 19-2 3v13l6 17 8 18 10 17 11 15h2l2 4 3 4h2l2 4 4 4h2l2 4h2l2 4 19 14 14 8 18 8 13 4h9l6-2 2-2h-2l4-9v-2l4-1 5-5h4l1-4 4-2v-2h2l2-5h2l4-6 5-5 5-6 2-1v-2l4-4-1-6 3-6 2-7 3-6v-6l4-2 3-7 3-9-1-5-7-1-2-4-7-4-7-1h-16l-8-4h-10l-2-1h-15l-2 1-1-2-5-2-5 1v-2l-9-2-6-2-5-1v-2l-6-1-1 3-7-2-12-2h-9v2l-4 1-4-2h-3l-2 6-12 3-16-3-8-4-4-4z" fill="#CB023C"/>
<path transform="translate(265,573)" d="m0 0 9 1 23 6 24 5h28l10-1 10 2 15 7 14 6 9 2 11-1 40-13 4-1h10l20 2 16 4 17 5 7 1h13l13-3 15-5h22l19 2h11l5 2-1 5-4 3-4 10-4 18-6 12h-2l-2 6-5 7-3 6-2 3h-2l-1 5-9 14-4 4h-2v2l-4 1-2 4-6 6h-2l-2 5h-2l-2 5-4 4h-2v2l-9 7h-2l-2 4-4 10-6 5-11 4-6 2-27 4h-37l-21-2-9-2-11-1-3-1v-2l-13-2-17-6-17-9-8-4-16-11-14-12-4-4v-2h-2v-2h-2v-2h-2v-2h-2l-1-2-5-3v-4h-2l-2-4-3-3-8-16-2-3 1-3v2h2l4 7v3h2l3 7 4 6 7 6 9 11 1 4h2l5 5 6 4 15 11 11 7 19 10 20 7 14 4 21 3h8l12-5 11-3 13-6 10-4 15-8 7-3 13-10 6-7 10-15 7-11 4-5 5-9 8-11 6-10h2l2-6 5-8 3-11v-15l-4-1-23 3-5 1h-8l-15-3-14-4-11-3-16-2h-17l-16 3-14 5-13 4-6 1h-12l-13-4-15-6-5-3-19-2-9 1h-9l-23-3-19-4-11-3-6-2h-9l-1 2-1 10h-1l-1-5v-9z" fill="#840235"/>
<path transform="translate(474,524)" d="m0 0 9 1 11 6 15 10 12 6 9 3 14 1 20-3h17l2 1-2 5-7 6h-2l-1 3-16 12-10 5-3 1h-9l-13-4-12-6-14-8-9-3h-7l-12 3-24 10-13 4-16 3h-11l-9-5-11-12-7-8-5-4h-7l-20 8-15 5-11 1-14-2-9-3-3-2 2-4 28-12 16-7 15-5 29-4h12l4 3 4 12 5 5 4 2h9l16-5 17-9 16-8z" fill="#FDFDFD"/>
<path transform="translate(416,388)" d="m0 0 10 1 10 4 13 8 20 13 9 6 7-1 13-9 19-11 12-6 3-1 13 1 12 5 15 9 10 9 5 3 14 2v1l-17 2-21 8-9 6-3 3h-2l-2 4-7 10-4 11v22l-2-2-1-5v-12l3-12 7-11 7-9v-8l-5-1-3-1h-11l-8 4-10 6h-2v2l-12 7-10 6-10 5h-11l-11-6-10-10-12-9-6-2h-9l-8 4-1 3 4 9v3h2l9 17 3 10v6l-3 7-7 5-10 1-18 6-9 2-18 2-25 3-3 2h-3v2l-5 2 5-6 6-3 38-4 18-4 18-6 8-4 4-6v-7l-4-11-10-16-11-14-7-4-18-6-13 1h-14l-7-2-10-9-11-11-11-8-7-3v-1l7 1 11 7 5 5 10 9 8 7 7 2h9l7-3 12-10 18-11 15-8z" fill="#9F989B"/>
<path transform="translate(497,204)" d="m0 0h9l29 4 23 4 22 6 18 8 17 9 15 10 13 11 5 5 9 10 8 14 7 15 5 13 7 25 1 4v12h-2v2l-15 5-23 5-19 6-9 4-8 6-7 6-4 1h-13l-14-7-16-11-12-5v-2l-13 4-16 9-8 5-1 3h-2l-1 3h-3l-2 4-9 2h-8l-13-5-21-14-14-7v-2l-19-2-11 4-5 2-5 3-1 2-8 4-4 3-5 2-3 1-2 4-5 3-6 1-13-5-19-10-16-7-15-5-23-5-11-3-1-1v-10l5-20 7-20 2-5h2l-1 5-10 30-2 8v9l2 2 32 7 5 3 15 5 15 7 20 10h13v-2l16-12 11-7 4-4 13-5h7l21 7 16 9 10 7 12 7 3 1h8l14-7 20-13 14-8h14l10 6 8 6 4 2v2l6 2 8 4v2l9-1 5-5 7-11 6-7h2l2-5h2l2-7 6-15 3-13 4-23 3-14 4-20-3-6-1-3-3-1-3-3v-3l-5-2-9-6-7-3-7-5-21-9-9-3-25-4-17-2-22-4h-10l-4 13v9l47 2 6 3-1 4-6 5-17 7-15 4-20 3h-17l-19-3-17-5-6-3v-3l5 3 21 6 13 2h19l21-3 15-4 12-5 8-5v-2l-3-1-46-2-4-3 1-9 5-17z" fill="#840235"/>
<path transform="translate(580,77)" d="m0 0h20l19 2 16 3 5 2v8l-6 10-9 11-13 13-6 5-11 7-20 7-7 2-19 3h-15l-18-1h-9l-2-1v-9l5-12 6-12 7-9 10-11 11-7 15-7 13-3z" fill="#018D5F"/>
<path transform="translate(353,243)" d="m0 0h9l11 4 11 8 5 8 1 3v7l-3 10-8 14-9 12-8 10-11 8-13 4-10 1-9-2-8-5-5-8-2-6v-18l4-12 7-12 12-13 14-9z" fill="#FBFCFC"/>
<path transform="translate(404,216)" d="m0 0h31l9 2 2-1 9 3h6l3 3-1 5-28 1-11 2-5 2-1 10 4 6 5 4 8 3 1 4-3-1 1 7-4-1-8 2-7-1-2-2h2l1-6-4-1-1-3-2 2v4l2 1v3l-1 4h-2l-1 10-1 2h-2l-1 7-2 5-4 4-2 6h-2v2l-12 9-2 2h-4v4h-4v4l-7 3-10 8-11 4-7 1-2-2-8 1-14-5-9-10-2-10-1-4v-16l4-13 4-16 3-4 3-1 2-3h2l1-3 5-4 9-5 3-1 3-3h3v-2h3v-2h3v-2l6-2 1-3 5-2 1-2 20-6 10-2zm-51 27-14 5-12 8-8 8-9 13-5 12-1 4v18l4 9 4 6 9 5 9 1 12-2 10-4 11-8 11-14 7-10 8-16 1-5v-7l-4-8-5-5-10-7-9-3z" fill="#F6104B"/>
<path transform="translate(416,500)" d="m0 0 4 2-1 10-3 6-1 7-3 7-1 2v10l10 1 13-4 22-12 9-4 8-3h9l9 4 10 5 8 5 14 7 14 1 9-3 3-3h2l2-5 6-6 7-1 16 2 24 2 14 3 10 5 12 9 6 4 1 3-4 4-21 3-20-1-6-1-4-5-5-1-11 8-14 10-15 10-7 2h-10l-12-4-15-8-10-6-10-3-11 1-13 4-23 10-14 4-8 1h-13l-10-4-12-13-6-7-3-2h-7l-7 4-6 5-6 1v2l-11 3h-16l-16-4-15-6-3-4 4-4 15-6 20-9 15-7 17-5 18-4 11-6 11-7 11-5zm58 24-12 5-29 15-14 4h-9l-7-4-3-5-3-10-4-3h-12l-29 4-23 8-19 9-17 7-2 4 8 4 9 2 13 1 14-3 28-11h7l10 9 11 13 5 4 6 3h11l20-4 19-7 14-6 12-3h7l11 4 21 12 11 4 5 1h9l12-5 11-9 7-5v-2l5-2 6-7-1-2-1-1h-17l-22 3-12-1-16-6-19-12-9-6-6-2z" fill="#5B6164"/>
<path transform="translate(415,394)" d="m0 0h8l11 4 16 9 11 8 10 7 6 3h6l8-4 8-5 20-11 7-3 10-2 3 3-1 5-6 1-2 4-11 9-3 1v2l-19 13-7 6-8 5-7 2h-6l-10-6-11-11-14-10-9-3-12-1-12 1-1 3v8l-4-2-21-7 1-3 9-5h2v-2l11-9 15-9z" fill="#C6C9CA"/>
<path transform="translate(678,577)" d="m0 0h5l4 3v7l-4 18-5 19-4 9-4 10-9 16-8 11h-2l-2 4-7 8-5 6-4 3h-2l-2 4-11 11-8 6-14 9-24 12-17 6-11 4-22 6h-6v-1l26-7 16-6 10-5h3v-2l10-7 10-9 4-5 8-7 7-8 10-10h2l2-4 9-11 8-14 2-5 2-10 6-11 4-4 7-16 2-10 3-3 3-8-12-1-27 3-12 2h-21l-10-1v-1h28l50-8z" fill="#3B0922"/>
<path transform="translate(585,221)" d="m0 0 9 3 21 11 15 10 13 11 5 5 9 10 8 14 7 15 5 13 7 25 1 4v12h-2v2l-15 5-23 5-19 6-9 4-8 6-7 6-4 1h-13l-14-7-11-8 2-1 18 11 6 2h8l7-3 7-11 7-4 10-4 5-3 7-3 6-8h2l1-14 1-3v-21l-1-19-2-12v-14l-2-6-3-5-7-5-5-5-19-12-15-8-8-4z" fill="#540427"/>
<path transform="translate(573,590)" d="m0 0h22l19 2h11l5 2-1 5-4 3-4 10-4 18-6 12h-2l-2 6-5 7-3 6-2 3h-2l-1 5-9 14-4 4h-2v2l-4 1-2 4-6 6h-2l-2 5h-2l-2 5-4 4h-2v2l-9 7h-2l-2 4-4 10-6 5-11 4-6 2-27 4h-37v-1l30-1 23-4 3-3v-5l5-5 4-6 13-13 10-9 15-16 5-7h2l2-4 4-5 9-6 8-4 9-11 7-11 4-9 5-10 3-16v-7l-4-4-5-2-23-1h-8z" fill="#71042F"/>
<path transform="translate(474,524)" d="m0 0 9 1 11 6 15 10 12 6 9 3 14 1 20-3h17l2 1-2 5-7 6h-2l-1 3-16 12-10 5-3 1h-9l-13-4-12-6-14-8-9-3h-7l-12 3-24 10-13 4-16 3h-11l-9-5-11-12-7-8-5-4h-7l-20 8-15 5-11 1-14-2-9-3-3-2 2-4 28-12 16-7 15-5 29-4h12l4 3 4 12 5 5 4 2h9l16-5 17-9 16-8zm0 3-30 15-7 2v2l-10 3-8 2h-9l-9-4-9-10-6-3-10-1h-15l-14 3-4 1v2l-9 2-19 7-13 7 1 4 4 3 12 1 10-2 25-9 7-3 7-1 9 4 5 5h2l2 4 9 11 4 4 3 1h13l11-1 8-2v-2l9-2 24-10 10-3h7l17 6 12 7 4 2 4 4 4 2 6 1h12v-2l5-1 9-6 6-5 2-3v-4l-5-1h-16l-16-3-14-6-13-9-1-2-7-3-10-6z" fill="#C2C5C6"/>
<path transform="translate(425,209)" d="m0 0h23l18 1 2 2 1 9v10l-2 3h-42l-3 3 1 7 4 2 4 5-4-1-5-3-3-7 2-5 4-5 10-2 28-1v-6h-10l-7-3-2 1-9-2h-31l-13 1-21 5-9 2-1 3-5 2-3 3-4 1v2h-3v2h-3v2l-5 1-1 3-7 3-5 2-1 2-8 7-1 3-4 1-2 5-2 11-3 7-2 10-1 10-4-4-4-2-1-5 3-5-3 1-1-2-3 2-2 4h-2v3h-2l-1 3-4 2 1-7h2l1-6h2l1-6 9-15 9-11 8-6 5-4 13-9 17-11 15-6 16-5 20-4z" fill="#C9023C"/>
<path transform="translate(342,202)" d="m0 0v3l-4 4-8 4-9 6-7 4-6 5h-2v2l-5 1v2l-7 6-2 3h-2l-2 4-3 4h-2l-2 4-9 13-6 11-6 12-5 14-3 9-4 17-2 15-2 11-2 18 22 4 25 4 16 5 9 4 10 7 6 5v2l4 2 9 8v2l13 2 7-2 3-3h2v-2l12-9 12-7 11-6 11-4h10l13 4 11 7 14 9 15 11 6 1 14-10 11-6 16-9 10-3 12 1 13 5 8 4 12 8v2l5 2 7 4 2 1h12l11-1 13-6 10-9 8-8 5-4 4 2-9 7-16 17-12 4-12 2h-16l-7-3-11-9-14-9-8-4-12-3h-7l-12 5-27 16-8 6-7 1-9-6-31-20-8-4-8-2-11 1-19 10-15 10-14 11-4 1h-9l-9-3-13-13-8-6v-2l-4-2-9-5-11-2-26-6-31-6-3-2 7-49 4-17 6-16 8-16 9-15 13-16 12-13 11-9 18-12 16-9z" fill="#1F2931"/>
<path transform="translate(580,77)" d="m0 0h20l19 2 16 3 5 2v8l-6 10-9 11-13 13-6 5-11 7-20 7-7 2-19 3h-15l-18-1h-9l-2-1v-9l5-12 6-12 7-9 10-11 11-7 15-7 13-3zm3 3-16 2-17 6-10 7-9 7v2l-3 1-8 10-6 10-3 8v7l1 2 7-2 10-10 7-6 8-5v-2l4-1 10-5 8-3h5l1-2 19-2h9l7 2-3 3v2l-10 1-16 3-12 3-13 5-13 8-8 8v5l5 2h14l16-3 17-5 12-5 11-7 11-10 9-11 7-8 3-9v-3l-21-4-10-1z" fill="#0B5842"/>
<path transform="translate(580,61)" d="m0 0h33l19 3 22 6 10 4 1 6-8 17-10 16-12 16-7 8-11 8-10 6-20 8-20 6-24 4-45 4 1-3 16-2 45-5 18-5 16-6 3-3 10-4 16-11 5-5 6-8 5-5 3-5 1-2h2l2-5 7-11 5-9 1-5-1-4-7-2v-2l-5 1-29-7-10-2h-21l-20 3-20 7-5 5-7 3-8 5h-2l-2 4-7 6-10 14-5 8-5 11-3 10-2 3-5 9-5-1-6-10-4-7-6-8-4-3-5-2-4 1-2-1v2l-4 2-1 9 6 7v2l4 2 4 4v2h2l8 11 3 12v10l-3 3-3 1-50 1-10 1-5-1v-1l16-2 36-1h15l-3-14-4-10-11-14-8-9-4-8 2-7 8-5 7-3h7l5 5 7 10 8 16 3 3 3-10 7-17 9-16 8-10 8-8 13-9 17-9 18-6z" fill="#283138"/>
<path transform="translate(81,448)" d="m0 0h13l10 4 3 3 1 6-4 7-8 10-1 3 9 2 9 4 1 1v9l-4 6-5 2-8 1h-12l-5-5-6-15-12-20 1-7 5-5 6-4z" fill="#232D34"/>
<path transform="translate(416,500)" d="m0 0 4 2-1 10-3 6-1 7-3 7-1 2v10l10 1 13-4 22-12 9-4 8-3h9l6 3v2l5 2 1 2-5-2-9-4-9 1-9 4-29 15-14 4h-9l-8-5-3-5-3-10-3-2h-12l-29 4-23 8-19 9-17 7-2 3 5 2 12 3 13 1 14-3 28-11h7l3 3-8 1-11 10-8 2v2l-11 3h-16l-16-4-15-6-3-4 4-4 15-6 20-9 15-7 17-5 18-4 11-6 11-7 11-5z" fill="#5B6164"/>
<path transform="translate(327,514)" d="m0 0 1 2-5 5-6 5-10 4-9 3-20 7-32 8-2 1-1 6 1 19 2 5 3 19 2 6 2 13 2 5 6 18 2 5 2 9 4 7 3 7 3 2 1 5 3 1 2 5 6 7v2h2v2l4 2 6 10 6 5 7 8 11 7 7 5 4 5 5 2v2l4 2 3 1 2 3 7 3 6 4 3 4v4l-5 2-9 1-2 1-36 2-24 2h-9l-6-1v-1l44-4 38-3h6l-4-4-15-9-18-14-11-8-10-9-14-14-13-17-9-13-9-17-7-19-6-20-6-36-2-21v-13l35-9 30-8 13-5z" fill="#242D35"/>
<path transform="translate(586,593)" d="m0 0 8 2 5 3-4 22-4 6-3 5-5 6-7 10-2 4-8 7-2 3h-2l-2 5h-2l-2 5-7 10h-2l-2 4-8 10-6 8-10 10-12 8-38 19-4 1-2 4-8 3-6 1h-19v-1l7-1 12-5 11-3 13-6 10-4 15-8 7-3 13-10 6-7 10-15 7-11 4-5 5-9 8-11 6-10h2l2-6 5-8 3-11v-15l-4-1-23 3-5 1h-8l-15-3v-1l23 1 18-4 6-2z" fill="#9E0139"/>
<path transform="translate(657,527)" d="m0 0 12 2 26 6 14 6 6 4v26l-2 19-4 23-6 21-8 18-12 21-10 13-12 14-23 23-11 9-13 9-14 8-4 3 9 2 75 7 38 5 27 5 10 4 1 4-8 4-17 5-26 4-40 4-28 2h-20l2-2 38-2 11-3 28-1 31-4 16-4 4-3 1-3-13-3-24-4-23-3-3-1-31-2-2-1-46-3-2-1-9-1-3-3 1-5 13-7 6-3 11-8 5-5 4-2v-2l10-7 1-2h2l2-4 7-8h2l2-4 9-10 7-10h2l1-4 10-16 3-4 4-11 5-12 3-11 2-10 3-10 2-17 2-13 2-23-10-3-19-6v-2l-19-4-8-3z" fill="#353D44"/>
<path transform="translate(542,415)" d="m0 0 9 1 12 5 3 4-1 4-8 7-6 5h-2l-2 4-7 10-4 11v22l-2-2-1-5v-12l3-12 7-11 7-9v-8l-5-1-3-1h-11l-8 4-10 6h-2v2l-12 7-10 6-10 5h-11l-11-6-10-10-12-9-6-2h-9l-8 4-1 3 4 9v3h2l9 17 3 10v6l-3 7-7 5-10 1-18 6-9 2-18 2-25 3-3 2h-3v2l-5 2 5-6 6-3 38-4 18-4 18-6 8-4 4-6v-7l-4-11-10-16-7-9v-8l5-5 4-2h13l11 4 9 7 14 13 8 4h11l10-5 20-14 18-12 9-4z" fill="#5E6467"/>
<path transform="translate(365,555)" d="m0 0h7l4 3-1 2-7-1-2 5-2 6 4 9v3l6 2 11 6v2l18 6h10l17-4 18-7 12-4h12l22 3 17 5 15 4 7 1h9l10-2 15-5 5-2 8-1 7 1 1 1 7 1v1l-22 1-22 7-6 1h-13l-14-3-21-6-11-2-14-1h-10l-16 5-28 9-13 1-15-5-16-8-10-3-9-1-6 1h-28l-37-8-13-4h-6l-2 2v14h2l3 15 1 4v7l3 1 3 11 3 6v4h2v3h2l3 9-4-2-4-9-4-10-1-5h-2l-4-16-5-21v-14l3-3h7l22 6 16 4 26 3 16-2v-2l3-2 2-5-11 1h-30l-14-5-5-1 1-2 12 3 11 2h15l11-2v-2l9-4 7-6z" fill="#3A0922"/>
<path transform="translate(415,394)" d="m0 0h8l11 4 16 9 11 8 10 7 6 3h6l8-4 8-5 20-11 7-3 10-2 3 3-1 5-6 1-2 4-11 9-3 1v2l-19 13-7 6-8 5-7 2h-6l-10-6-11-11-14-10-9-3-12-1-12 1-1 3v8l-4-2-21-7 1-3 9-5h2v-2l11-9 15-9zm1 3-12 9-1 6 5 2 13 2 12 4 10 7 3 3h2l2 4h2l2 4h2l2 4h2l1 3 8 4h8l11-6 13-11 8-6 8-9v-3l-6-1-16 8-9 5-10 1-9-5-11-8-9-6-12-7-9-4z" fill="#AEB4B5"/>
<path transform="translate(686,572)" d="m0 0 5 1 1 9-1 10-4 21-2 9-5 12-4 12-8 16-5 5-8 11h-2l-2 4-11 11-5 3-5 5-10 8-9 7-20 10-4-1 14-8 10-7 10-8 26-26 4-6h2l2-4 7-10 8-15 3-8 5-12 5-21 3-13v-7l-3-2-9 1-13 3-33 5-12 2h-16l-21-2-10 2-10 4-4-1 16-6 3-1 16 1 20 1 35-5 25-5 11-4z" fill="#210F1B"/>
<path transform="translate(274,302)" d="m0 0h2l-1 5-10 30-2 8v9l2 2 32 7 5 3 15 5 15 7 20 10h13v-2l16-12 11-7 4-4 13-5h7l21 7 16 9 10 7 12 7 3 1h8l14-7 20-13 14-8h14l6 4 1 3 5 3v2l-5-2-12-5v-2l-13 4-16 9-8 5-1 3h-2l-1 3h-3l-2 4-9 2h-8l-13-5-21-14-14-7v-2l-19-2-11 4-5 2-5 3-1 2-8 4-4 3-5 2-3 1-2 4-5 3-6 1-13-5-19-10-16-7-15-5-23-5-11-3-1-1v-10l5-20 7-20z" fill="#590429"/>
<path transform="translate(416,388)" d="m0 0 10 1 10 4 13 8 20 13 9 6 7-1 13-9 19-11 12-6 3-1 13 1 12 5 15 9 10 9 5 3 14 2v1l-7 1h-14l-11-9v-2l-4-2-14-9-11-4-11 1-16 8-17 10-11 7-2 1h-6l-10-6-14-10-13-8-10-5-6-2h-9l-9 4-14 8-24 18-6 1h-14l-7-2-10-9-11-11-11-8-7-3v-1l7 1 11 7 5 5 10 9 8 7 7 2h9l7-3 12-10 18-11 15-8z" fill="#6C7578"/>
<path transform="translate(352,240)" d="m0 0h13l10 4 10 6 2 4 4 2 3 3 1 6-1 14-4 10-8 11-16 20-8 7-5 3-18 5h-13l-10-5-7-8-4-9-1-4v-16l4-13 4-16 3-4h6v-2h2v-2l15-10 12-5zm1 3-14 5-12 8-8 8-9 13-5 12-1 4v18l4 9 4 6 9 5 9 1 12-2 10-4 11-8 11-14 7-10 8-16 1-5v-7l-4-8-5-5-10-7-9-3z" fill="#E03752"/>
<path transform="translate(641,259)" d="m0 0 3 3 1 9v11l2 13 1 24v14l-3 17h-2l-2 4-5 6-9 4-8 4-8 3-5 5-5 8-3 2-4-1 5-3 7-11 4-5 9-5 7-9 4-10 3-11 4-36 4-23z" fill="#71042F"/>
<path transform="translate(497,182)" d="m0 0 13 1 44 5 23 4 23 6 24 10 16 9 10 7 11 9 16 16 13 17 11 19 9 24 5 21 3 23 1 19-3 3-26 6-25 6-9 3 1-4 16-5 16-3 25-5 1-1 1-9-1-17-2-7-2-15-3-8-2-8-4-11-7-15-5-9-5-5-3-5v-2h-2l-4-6-8-8v-2l-3-1v-2l-4-2-1-3h-3l-5-5-11-8-10-7-17-9-9-2-6-3-16-5-7-2-13-2-8-2v-2l-44-4-11-2z" fill="#2B343B"/>
<path transform="translate(752,439)" d="m0 0 4 2 16 20-2 4-11 15-4 4-6-1-7-4-4-5-1-4-11-9 5-5 12-7z" fill="#E0445D"/>
<path transform="translate(843,487)" d="m0 0h22l10 3 5 5 1 2v6l-4 6-5 4-9 2h-20l-5-3-2-5v-9l4-9z" fill="#0D0D13"/>
<path transform="translate(278,609)" d="m0 0 2 4 4 4v3h2l3 8 4 10 2 7 1 5 2 2v5h2l2 4 2 1v2h2v5h2l5 7 5 5v2l4 1 2 3 3 1 1 4 6 2 1 3h3l1 4 4 1-1 2 5 1v3l4 1v2l4 1 5 2 3 2 7 5 1 2 4 1v3h2l1-2 1 3-4 1-2-3h-7l-12-6-9-6-17-13v-2l-4-2v-2l-4-2-4-4v-2h-2l-5-6v-2l-3-1-13-19-9-16-8-19v-11z" fill="#F60F4A"/>
<path transform="translate(854,399)" d="m0 0h18l6 3 3 4 1 3v10l-4 6-4 3-11 2-14-1-5-5-1-2v-14l4-6z" fill="#0E0E14"/>
<path transform="translate(212,443)" d="m0 0 7 1 11 11 2 4-1 5-11 17-3 3-4-1-7-5-5-6-11-9 2-4 9-8z" fill="#E03E58"/>
<path transform="translate(580,61)" d="m0 0h33l19 3 22 6 10 4 1 6-8 17-10 16-12 16-7 8-11 8-10 6-20 8-20 6-24 4-45 4 1-3 16-2 45-5 18-5 16-6 3-3 10-4 16-11 5-5 6-8 5-5 3-5 1-2h2l2-5 7-11 5-9 1-5-1-4-7-2v-2l-5 1-29-7-10-2h-21l-20 3-20 7-5 1 4-3 15-6 12-3z" fill="#30383F"/>
<path transform="translate(572,87)" d="m0 0h46l9 2v3l-1 4-8 2h-10l-8-2h-16l-5 1-3-1v2l-6 1-11 4-5 1v2l-10 4-3 1v2l-10 5-5-1 2-5 7-8h2v-2l7-5 8-3 2-2 10-3 2 1v-2z" fill="#22AC82"/>
<path transform="translate(902,443)" d="m0 0 7 1 8 7 4 6 1 7-5 9-8 6-7-1-11-7-11-9 6-7 10-9z" fill="#CC053E"/>
<path transform="translate(474,524)" d="m0 0 9 1 11 6 15 10 12 6 9 3 14 1 20-3h17l2 1-2 5-7 6h-2l-1 3-16 12-10 5-3 1h-9l-8-2v-1l18 1v-2l10-5 8-7h2l2-7h-21l-16-3-14-6-14-10v-2l-5-1-12-7-9-1-30 15-7 1v2l-13 5h-13l-1-2 13-2 12-4 17-9 16-8z" fill="#B7B9BA"/>
<path transform="translate(613,239)" d="m0 0 5 2 11 7v3l3 1 6 7 2 7-4 18-3 14-4 23-4 16-5 12-3 7h-2l-2 5-5 5-6 8-6 9-3 2h-9v-1l8-2 3-1 2-5 6-10 8-10 4-8 3-12 2-3 1-8-1-7 2-16 4-14 2-9 1-6v-19l-10-10-3-1v-2l-3-1z" fill="#9D0138"/>
<path transform="translate(342,202)" d="m0 0v3l-4 4-8 4-9 6-7 4-6 5h-2v2l-5 1v2l-7 6-2 3h-2l-2 4-3 4h-2l-2 4-9 13-6 11-6 12-5 14-3 9-4 17-2 15-2 11-2 18 22 4 1 3 3 1-9-1-20-4-3-2 7-49 4-17 6-16 8-16 9-15 13-16 12-13 11-9 18-12 16-9z" fill="#222B33"/>
<path transform="translate(97,403)" d="m0 0h10l10 3 6 5 1 7-7 8-5 4-3 1h-14l-7-3-3-4-1-3v-7l3-7 5-3z" fill="#0D0D13"/>
<path transform="translate(88,451)" d="m0 0 10 2 4 4v6l-4 6-5 5h-2l-2 4-1 1v6l1 5h2v2l2 1-1 2 3 1v3l-4-1-5-2-4-6-2-5-4-5-1-3-4-4-4-6 1-7h2l2-4 7-3z" fill="#0D0D13"/>
<path transform="translate(282,298)" d="m0 0 5 1v6l-1 1-1 4h-1v9l-2 5-2 2 1 7-1 1v5l2 7 6 3v2h2l4 4v2h-3v2l-18-2-7-2-2-2v-7l4-16 7-22 4-8h3z" fill="#F6114B"/>
<path transform="translate(435,410)" d="m0 0h8l12 7 10 8 8 5 9 1 12-5h3v4h-2v3l-8 7-9 6-7 1-7-3-2-1v-2h-2l-7-8-12-14-3-3v-2h-2z" fill="#DBE0E1"/>
<path transform="translate(289,792)" d="m0 0h16l9 1 42 2 66 1h92l99 2v1h-124l-140-1-30-1-40-3v-1z" fill="#323A41"/>
<path transform="translate(367,547)" d="m0 0 9 3 6 5v2h2l9 11 4 6 5 2h13l11-1 8-1v-2l19-7 11-5 13-4h7l17 6 12 7 5 3v2l6 2 1 2-5-1-12-6-14-8-9-3h-7l-12 3-24 10-13 4-16 3h-11l-9-5-11-12-7-8-5-4h-7l-20 8-15 5-11 1-9-1-1-2h12l10-2 25-9 7-3z" fill="#AFB0B2"/>
<path transform="translate(265,573)" d="m0 0 9 1 23 6 24 5h28l10-1 10 2 15 7 14 6 7 2h16l34-11 4-1h26l18 3 3 2h-6l-9-2-9-1h-17l-16 3-14 5-13 4-6 1h-12l-13-4-15-6-5-3-19-2-9 1h-9l-23-3-19-4-11-3-6-2h-9l-1 2-1 10h-1l-1-5v-9z" fill="#960137"/>
<path transform="translate(274,302)" d="m0 0h2l-1 5-10 30-2 8v9l2 2 32 7 5 3 15 5 15 7 20 10h13v-2l16-12 12-8 10-2v-2l6-2h10v2l9 1 1 2h-10l-6-1-11 4-5 2-5 3-1 2-8 4-4 3-5 2-3 1-2 4-5 3-6 1-13-5-19-10-16-7-15-5-23-5-11-3-1-1v-10l5-20 7-20z" fill="#4C0626"/>
<path transform="translate(542,415)" d="m0 0 9 1 12 5 3 4-1 4-8 7-3 1 2-5-1-7-4-1-6-2h-13l-13 7-30 20-8 4-3 1h-10l-9-5-14-13-10-7-5-2h-15l-6 3-1 7 1 6-5-5v-8l5-5 4-2h13l11 4 9 7 14 13 8 4h11l10-5 20-14 18-12 9-4z" fill="#6C7578"/>
<path transform="translate(657,527)" d="m0 0 12 2 26 6 14 6 6 4v26l-2 19-4 23-6 21-3 7-2 1-8 16-4 6h-2l2-5 4-6 4-11 5-12 3-11 2-10 3-10 2-17 2-13 2-23-10-3-19-6v-2l-19-4-8-3z" fill="#283138"/>
<path transform="translate(643,257)" d="m0 0 4 2 9 11 6 10 5 9 9 20 8 29 1 4v12h-2v2l-15 5-23 5-19 6-9 4-8 6-7 6-4 1h-13v-1l12-1 6-3h2l2-5 4-4 6-3 26-8 24-6 10-4 2-4-1-12-3-11v-8l-8-21-8-16-7-11-7-10z" fill="#3B0922"/>
<path transform="translate(497,204)" d="m0 0h9l29 4 23 4 22 6 5 2-4 1-18-5-32-6-21-3h-13l-3 14-1 2v9l47 2 6 3-1 4-6 5-17 7-15 4-20 3h-17l-19-3-17-5-6-3v-3l5 3 21 6 13 2h19l21-3 15-4 12-5 8-5v-2l-3-1-46-2-4-3 1-9 5-17z" fill="#470624"/>
<path transform="translate(654,388)" d="m0 0m-2 1 4 2-9 7-16 17-12 4-12 2h-16l-7-3-11-9-14-9-8-4-12-3h-7l-12 5-27 16-8 6-2-1 8-7 10-6 16-9 10-5 7-2 12 1 13 5 8 4 12 8v2l5 2 7 4 2 1h12l11-1 13-6 10-9 8-8z" fill="#1E2830"/>
<path transform="translate(417,352)" d="m0 0h12l8 2v2h4v2h2v2l6 1 2 2 9 3 7 3 3 3 5 3h2v2l5 1 6 2h4v2h-2v3l-7 3-12-4-11-8-11-7-4-2v-2l-5-1-6-2v-3l-8-1-10-4z" fill="#F6104B"/>
<path transform="translate(632,81)" d="m0 0 7 1 3 2-1 9-6 12-13 15-5 4-1 2h-2v2l-11 8-6 4-17 7-16 3-10 2-23 1-14-1h-14l-2-5 4-13 7-14 1 2-6 14-2 12h18l11 1h15l19-3 16-5 12-5 13-8 6-5 7-8 9-10 8-13 1-8-8-2z" fill="#1C262E"/>
<path transform="translate(586,121)" d="m0 0 5 1 2 3h-2v2l-5 2h-2v2l-13 4-10 4-6 2h-12l-2-1 1-5 4-1 1-3 14-6 8-2h7l2 1v-2h6l2 1z" fill="#23AD83"/>
<path transform="translate(368,552)" d="m0 0 7 2 7 7 9 11 5 4 6 3h11l20-4 19-7 14-6 12-3h7l11 4 21 12 11 4 5 1h9l12-5 11-9 4-3 2 1-4 5-15 10-7 3-3 1h-10l-12-4-15-8-10-6-10-3-11 1-13 4-23 10-14 4-8 1h-13l-10-4-12-13-6-7-3-2h-9l2-3z" fill="#626A6D"/>
<path transform="translate(97,403)" d="m0 0h10l10 3 6 5 1 7-7 8-5 4-3 1h-14l-7-3-3-4-1-3v-7l3-7 5-3zm-2 5-5 3-2 4 1 10 4 3 14 1 6-2v-2l3-1 1-2v-6l-4-4-16-3z" fill="#262F36"/>
<path transform="translate(416,388)" d="m0 0 10 1 10 4 13 8 20 13 9 6 7-1 5-2-4 4-2 1h-7l-9-5-14-10-17-11-14-5h-9l-16 8-14 9-9 7-8 6h-2v2l-3 1h-14l-7-2-10-9-11-11-11-8-7-3v-1l7 1 11 7 5 5 10 9 8 7 7 2h9l7-3 12-10 18-11 15-8z" fill="#5B6164"/>
<path transform="translate(751,451)" d="m0 0 7 1 2 3 4 2 2 4-1 5-4 6-4 4-6 1-5-3-4-9-2-4 4-6 4-3z" fill="#CC033D"/>
<path transform="translate(240,543)" d="m0 0 3 1-4 4 2 27 6 32 4 15 9 27 4 10 6 10 7 10v2h2l3 6 9 11 9 10 8 7 5 5 13 10 2 3-4-2-11-8-10-9-14-14-13-17-9-13-9-17-7-19-6-20-6-36-2-21v-13z" fill="#686D70"/>
<path transform="translate(902,443)" d="m0 0 7 1 8 7 4 6 1 7-5 9-8 6-7-1-2-2 8-2 2-3h2v-7l-2-7-3-4-2-4-5 1-6 3-5 5-3 2 1 4 2 4-4-2-5-5 10-10 8-6z" fill="#DE4059"/>
<path transform="translate(264,570)" d="m0 0h7l22 6 16 4v2l12 1 8 1h13l11-2h7l11 3 12 6 1 2-5-1-5-3-10-3-9-1-6 1h-28l-37-8-13-4h-6l-2 2v14h2l3 15 1 4v7l3 1 3 11 3 6v4h2v3h2l3 9-4-2-4-9-4-10-1-5h-2l-4-16-5-21v-14z" fill="#480625"/>
<path transform="translate(418,208)" d="m0 0h39l11 1 2 3v21l-2 3h-12l-12-1h-16l-4 3 1 6 1 2-4-2-1-7 4-4h42l1-2v-10l-1-9-1-1-18-1h-23l-30 3-24 5-20 7-12 6-12 8-13 9-10 8v-3l11-9 13-9 13-8 18-8 17-5 20-4z" fill="#440724"/>
<path transform="translate(363,550)" d="m0 0h7l3 3-8 1-11 10-16 5h-20l-14-4-5-2 4-1 18 2 14-3z" fill="#E03853"/>
<path transform="translate(285,650)" d="m0 0 1 2h2l4 7v3h2l3 7 4 6 7 6 9 11 1 4h2l5 5 6 4 15 11 11 7 19 10 20 7 16 5v2l-7-1v-2l-13-2-17-6-17-9-8-4-16-11-14-12-4-4v-2h-2v-2h-2v-2h-2v-2h-2l-1-2-5-3v-4h-2l-2-4-3-3-8-16-2-3z" fill="#6D032E"/>
<path transform="translate(492,223)" d="m0 0h1v7l45 2 8 1 3 3-1 6-7 6-17 7-16 4-16 3h-22l-19-3-15-5v-1l8 1 18 4 8 1h17l25-4 18-6 12-6 3-3v-3l-5-2-47-2-1-1z" fill="#8A0235"/>
<path transform="translate(571,540)" d="m0 0h15v2h2v6l-2 4h-2l-2 4-8 6h-2v-2l6-4 4-5-1-3-25 2-16 2-13-2-13-5-5-4 4 1 12 5 14 1 9-1 12-5 10-1z" fill="#6C7578"/>
<path transform="translate(264,569)" d="m0 0h10l27 7 26 3 13-1-1-2h-11l-13-2v-1l30-1 11-1v3l-3 5h-2v2l-16 3-26-3-28-7-10-3-7-1z" fill="#210F1B"/>
<path transform="translate(513,547)" d="m0 0 12 3 13 3h14l11-1h9l3 3-4 8-16 12-10 5-3 1h-9l-8-2v-1l18 1v-2l10-5 8-7h2l2-7h-21l-16-3-14-6z" fill="#BEC0C1"/>
<path transform="translate(497,206)" d="m0 0h13l38 6 27 6 10 3 16 8 17 10 4 4-5-2-9-4-7-5-21-9-9-3-25-4-17-2-22-4h-11z" fill="#810234"/>
<path transform="translate(738,770)" d="m0 0 10 2 8 4v3l-8 4-17 5-26 4-40 4-28 2h-20l2-2 38-2 11-3 28-1 31-4 16-4 4-3 1-3-4-1-1-2-5-2z" fill="#313940"/>
<path transform="translate(396,517)" d="m0 0 6 1 1 3v19l4 5 5 2h11l-4 2h-9l-8-5-3-5-3-10-3-2h-12l-29 4-15 5-3-1 17-6 16-3 10-2 15-6z" fill="#6C7578"/>
<path transform="translate(843,487)" d="m0 0h22l10 3 3 3-17-2h-7l-11 2-3 5v10l5 4h13l11-1 4-3h2l2-4 2-9 2 2v6l-4 6-5 4-9 2h-20l-5-3-2-5v-9l4-9z" fill="#2E373D"/>
<path transform="translate(465,584)" d="m0 0 29 2 17 5 15 4 7 1h9l10-2 15-5 5-2 8-1 7 1 1 1 7 1v1l-22 1-22 7-6 1h-13l-14-3-21-6-11-2-14-1h-10l-11 2 1-2 6-2z" fill="#4A0625"/>
<path transform="translate(425,209)" d="m0 0h23l18 1 2 2 1 9v10l-2 3h-42l-3 3 1 7 4 2 4 5-4-1-5-3-3-7 2-5 3-3 5-1h25l9 1 3-2v-9l-1-8-16-1h-30l-25 3h-8l4-2 23-3z" fill="#880235"/>
<path transform="translate(483,529)" d="m0 0 6 2 7 5 4 1 5 5 11 7 12 5 16 3h19l2 1-1 5-5 5-9 7-4 2h-3v2h-12l-7-2-6-3v-2l11 3h15l9-5 5-5 1-3-1-1-19-1-15-4-16-9-9-7-7-4-9-6z" fill="#DADFE0"/>
<path transform="translate(603,536)" d="m0 0h7l15 5v2l4 1 7 4-1 5-4 1-7-2-1-2-20-6-5-3 1-4z" fill="#6C7578"/>
<path transform="translate(540,74)" d="m0 0h4l-2 4-7 3-8 5h-2l-2 4-7 6-10 14-5 8-5 11-3 10h-3l-3 7-1-3 8-20 10-18 8-10 8-8 13-9z" fill="#384046"/>
<path transform="translate(457,796)" d="m0 0h57l99 2v1h-124l-33-1z" fill="#434A50"/>
<path transform="translate(404,216)" d="m0 0h31l9 2v1l-5 1-3 1-5-1-4 1-1-1-12 2h-3-5l4 3 2-1 1 5-3 3-4 1-3-4v-7l-2-1h-16l-4 1-3-2 13-3z" fill="#EE0140"/>
<path transform="translate(474,527)" d="m0 0 9 1v1l-11 2-23 11-8 4-16 6-7 2h-7l-10-4-8-7v-2l-4-2-6-2-22-1-12 2h-6l4-2 14-3h20l9 3 12 12 8 3h9l14-4 4-1v-2l11-4 19-10z" fill="#DBE0E1"/>
<path transform="translate(367,547)" d="m0 0 9 3 6 5v2h2l9 11 3 5-7-2-12-14-7-6h-7l-20 8-15 5-11 1-9-1-1-2h12l10-2 25-9 7-3z" fill="#C0C4C5"/>
<path transform="translate(652,760)" d="m0 0h18l34 4 31 5 9 4v1l-9-1-24-4-23-3-3-1-31-2-2-1z" fill="#262F37"/>
<path transform="translate(613,738)" d="m0 0m-1 1v3l-10 6-6 3 4 2 16 2 44 4v1l-8 1h-16l-30-2-2-1-9-1-3-3 1-5 13-7z" fill="#2D363D"/>
<path transform="translate(645,257)" d="m0 0 4 2 6 5 12 18 10 22 3 12 6 21 2 8v8l-2 3h-3v-2h2l-2-16-8-29-10-23-6-10-8-11-6-7z" fill="#210F1B"/>
<path transform="translate(100,469)" d="m0 0 2 1-6 8-1 3 9 2 9 4 1 1v9l-4 6-5 2-8 1h-12l-5-5-6-15-4-7 1-2 7 11 4 11 3 3 3 1h13l7-3 1-1 1-10h-6l-10-5-1-6 6-8z" fill="#656B6E"/>
<path transform="translate(479,561)" d="m0 0 9 1 9 3 11 7-2 1-14-7-13-2-16 4-16 7-17 7-11 2-12 1-10-3-8-6v-3l6 5 8 3h13l16-3 15-6 19-8z" fill="#1C262E"/>
<path transform="translate(532,392)" d="m0 0 13 1 12 5 15 9 10 9 5 3 14 2v1h-17l-14-12-14-9-9-4-6-2h-10l-16 8-19 11-4 3-2-1 8-6 19-11 12-6z" fill="#5B6164"/>
<path transform="translate(497,204)" d="m0 0h9l29 4 23 4 22 6 5 2-4 1-18-5-32-6-21-3h-13l-3 14-1 2v9l29 1v1h-31l-2-2 1-9 5-17z" fill="#4B0525"/>
<path transform="translate(328,536)" d="m0 0h6l-2 2-29 13-10 4-2 3 5 2 3 1v2l11 3 8 2h20l8-1-3 2-8 2h-16l-16-4-15-6-3-4 4-4 15-6 20-9z" fill="#636B6E"/>
<path transform="translate(499,216)" d="m0 0h4v2l5 1 1 2 13 2 2 3 3 2-8 1h-24l-1-5 3-7z" fill="#E03853"/>
<path transform="translate(359,221)" d="m0 0 4 1-16 8-15 9-15 10-12 11-9 9-4 1 2-5 8-9 6-4 6-5 13-9 17-11z" fill="#8E0136"/>
<path transform="translate(409,358)" d="m0 0h7l21 7 16 9 10 7 12 7 3 1h8l10-5 2 1-7 5-5 2h-8l-14-7-11-8-8-5-9-2-4-2v-2h-3l-1-2-9-2v-2l-16 2v2l-4 2h-6l3-3z" fill="#830234"/>
<path transform="translate(516,546)" d="m0 0 11 3 13 2 24-3h17l2 1-2 5-7 6-2-1 2-4-2-2h-9l-11 1h-14l-16-4-6-3z" fill="#9F989B"/>
<path transform="translate(381,526)" d="m0 0h12l4 3 4 12 5 5 4 3-5-1-4-3v-2h-2l-5-9-3-3-3-1h-10l-23 2-19 6-12 5-5 3-9 2 4-3 20-9 18-6z" fill="#9F989B"/>
<path transform="translate(460,583)" d="m0 0h12l17 2v1h-10l-14-1-10 2-3 1-1 2-33 11-13 1-15-5-6-3v-2l5 1 10 4 4 1h10l17-4 18-7z" fill="#440724"/>
<path transform="translate(657,527)" d="m0 0 12 2 26 6 14 6 6 4v26l-2 19-1 7h-1v-8l2-23 1-20-5-1-15-5-10-3v-2l-19-4-8-3z" fill="#4C5358"/>
<path transform="translate(342,202)" d="m0 0v3l-4 4-8 4-9 6-7 4-6 5h-2v2l-5 1v2l-7 6-2 3-5 3-4 4-2-1 14-15 11-9 18-12 16-9z" fill="#333B42"/>
<path transform="translate(150,451)" d="m0 0h9l13 2-2 4-7 6-9 1-3-1-1-2z" fill="#64696C"/>
<path transform="translate(365,555)" d="m0 0h7l1 2-5 1-6 8-9 4-11 2h-24l-7-2v-1h6l7 1h11l11-2v-2l9-4 7-6z" fill="#560428"/>
<path transform="translate(370,558)" d="m0 0 7 1 4 4-1 2-3-3-5-1-2 1v5l3 7 2 4v4l4 1v2l4 2 2 3-4-1-13-7-5-12 2-6 3-5z" fill="#20101B"/>
<path transform="translate(274,302)" d="m0 0h2l-1 5-10 30-2 8v9l2 2 32 7 3 2h-10l-18-4-11-3-1-1v-10l5-20 7-20z" fill="#67042D"/>
<path transform="translate(261,277)" d="m0 0 1 3-5 10-6 16-3 11-1 1-3 20-3 21-1 6v11l8 1v1l-9-1-3-2 7-49 4-17 6-16z" fill="#686D70"/>
<path transform="translate(497,182)" d="m0 0 13 1 44 5 23 4 16 4v1l-27-2-11-3v-2l-44-4-11-2z" fill="#535A5E"/>
<path transform="translate(393,211)" d="m0 0h11v1l-14 2-23 5-20 8-11 6-13 9-12 8-7 6v-3l11-9 13-9 13-8 18-8 17-5z" fill="#4B0525"/>
<path transform="translate(462,586)" d="m0 0h10l20 2 13 3v1l-13-1-7-1h-26l-16 5-23 7h-13v-1l11-1 40-13z" fill="#7C0233"/>
<path transform="translate(662,361)" d="m0 0h5l-3 2-20 5-15 5-5 3-10 7-4 2-2 3-8 2h-11v-1l13-2 8-7 8-6 10-4 22-6z" fill="#210F1B"/>
<path transform="translate(563,162)" d="m0 0m-3 1 7 1v1l-24 4-45 4 1-3 16-2z" fill="#343D43"/>
<path transform="translate(473,522)" d="m0 0h9l6 3v2l5 2 1 2-5-2-9-4-9 1-9 4-29 15-9 2v-2l10-4 22-12 9-4z" fill="#61686B"/>
<path transform="translate(409,360)" d="m0 0h10v2l9 1 1 2h-10l-6-1-11 4-5 2-5 3-1 2-8 4-4 3-2-1 5-5 11-8 8-4h2v-2z" fill="#290D1D"/>
<path transform="translate(372,214)" d="m0 0 4 1-20 6-13 6-12 7-12 8-9 7-6 5-5 6-1-2 4-6 8-7 4-2v-2l13-8 10-6 9-4 8-4 13-4z" fill="#210F1B"/>
<path transform="translate(545,497)" d="m0 0 10 2 17 3 47 1 14 1 2 3-1 3-2-4-63-1-6-2-12-2-6-3z" fill="#757A7D"/>
<path transform="translate(395,188)" d="m0 0h5l-1 3-9 2-9 1-5 2-18 4-4 2h-10l3-2 18-6 24-5z" fill="#42494E"/>
<path transform="translate(528,456)" d="m0 0 3 1 1 2v6l-1 1v11l-1 3-5 2-2-2v-13l3-10z" fill="#0D0D13"/>
<path transform="translate(208,455)" d="m0 0h6l4 2 2 7h-2l-1 3-5 2-5-2-2-5h-2l-1-4 1-2z" fill="#CC033D"/>
<path transform="translate(412,747)" d="m0 0h7l17 3 13 1h37l12-1h12v1l-12 2-11 1h-35l-25-3-15-3z" fill="#4B0525"/>
<path transform="translate(240,543)" d="m0 0 3 1-4 4 2 27 6 32 3 11-1 7-2-3-5-24-4-28-1-13v-13z" fill="#666B6E"/>
<path transform="translate(654,388)" d="m0 0m-2 1 4 2-9 7-16 17-12 4h-5l4-4 11-5 10-9 8-8z" fill="#373F45"/>
<path transform="translate(285,650)" d="m0 0 1 2h2l4 7v3h2l3 7 4 6 7 6 9 11 1 4h2l6 7h-3l-7-7v-2h-2v-2h-2v-2h-2v-2h-2l-1-2-5-3v-4h-2l-2-4-3-3-8-16-2-3z" fill="#6E032E"/>
<path transform="translate(230,772)" d="m0 0 2 1-6 3h-2l3 5 7 2 8 1 6 2 22 3 1 3h7v1h-8l-25-4-17-5-8-5 2-4z" fill="#384046"/>
<path transform="translate(289,792)" d="m0 0h16l9 1 21 1 7 1v2h-23l-40-3v-1z" fill="#3A4148"/>
<path transform="translate(410,492)" d="m0 0 3 1-12 5-19 5-18 2-25 3-3 2h-3v2l-5 2 5-6 6-3 38-4 18-4z" fill="#6E7376"/>
<path transform="translate(302,390)" d="m0 0 7 1 11 7 5 5 10 9 8 7 8 3 11 1v1h-14l-7-2-10-9-11-11-11-8-7-3z" fill="#676C6F"/>
<path transform="translate(879,495)" d="m0 0 2 2v6l-4 6-5 4-9 2h-20l-5-3-2-5v-9h1l1 6 2 1 1 4 4 3h13l11-1 4-3h2l2-4z" fill="#454C52"/>
<path transform="translate(391,366)" d="m0 0 2 1-16 11-10 8h-2v2l-2 1h-11l-26-13-9-4-2-2 6 1 15 7 16 8 8 1 9-6 14-10z" fill="#8D0136"/>
<path transform="translate(540,74)" d="m0 0h4l-2 4-7 3-8 5h-2l-2 4-7 6-5 5-5 4 1-4 9-10 9-8z" fill="#333B42"/>
<path transform="translate(441,371)" d="m0 0 5 1 11 7 14 9 7 3h12l13-8h2v2h-2l-1 3h-3l-2 4-9 2h-8l-13-5-21-14-5-3z" fill="#4C0526"/>
<path transform="translate(477,556)" d="m0 0h7l17 6 12 7 5 3v2l6 2 1 2-5-1-12-6-14-8-9-3v-2l-13 1 2-2z" fill="#BFC1C3"/>
<path transform="translate(525,551)" d="m0 0 13 2h14l11-1h9l3 3-4 8-3 1 1-7-1-1h-30l-12-3z" fill="#ADB2B3"/>
<path transform="translate(436,253)" d="m0 0 8 1 18 4 8 1h17l8-1h13v1l-16 3h-22l-19-3-15-5z" fill="#8B0135"/>
<path transform="translate(580,61)" d="m0 0h33l19 3-1 2-23-3h-21l-20 3-20 7-5 1 4-3 15-6 12-3z" fill="#666C6E"/>
<path transform="translate(496,173)" d="m0 0h2l-1 10 17 2 32 3 9 2v1h-15l-6-2-13-1h-14l-9-2-4-3 1-9z" fill="#2A333A"/>
<path transform="translate(352,587)" d="m0 0h10l14 2 14 7 15 5 10 1v1h-16l-21-8-7-4-19-3z" fill="#8F0136"/>
<path transform="translate(738,770)" d="m0 0 10 2 8 4v3l-8 4-17 5-11 2-4-1 5-2 19-4 7-3 1-4-4-1-1-2-5-2z" fill="#3B4349"/>
<path transform="translate(317,761)" d="m0 0h12l-3 3-38 3h-9l-6-1v-1z" fill="#434B51"/>
<path transform="translate(565,569)" d="m0 0 2 1-7 7-6 2-1 3-7 3h-14l-12-4-11-6-1-2 6 2 11 5 7 2h10l8-3 14-9z" fill="#1C262E"/>
<path transform="translate(327,514)" d="m0 0 1 2-5 5-6 5-10 4-9 3v-2l-8 2-3 1h-7l4-2 24-7 10-5z" fill="#3F474C"/>
<path transform="translate(368,552)" d="m0 0 7 2 7 7 9 11 5 4 6 3h11l11-1-3 2-7 1h-15l-8-5-10-11-6-7-3-2h-9l2-3z" fill="#636B6E"/>
<path transform="translate(450,184)" d="m0 0 17 1-1 2-50 1-10 1-5-1v-1l16-2z" fill="#202A31"/>
<path transform="translate(307,548)" d="m0 0h3v2l-4 1-2 4h-2l2 4 3 2v2l-8-1-8-4 2-4z" fill="#BBBDBF"/>
<path transform="translate(421,461)" d="m0 0h2l4 8 2 7v6l-3 7-7 5-5 1-2-2 3-3 7-4 3-5v-7l-4-11z" fill="#606669"/>
<path transform="translate(499,207)" d="m0 0 11 1 45 7 15 3v1h-7l-25-4-27-4-14-2z" fill="#9E0139"/>
<path transform="translate(294,552)" d="m0 0 3 1-5 3-1 2 5 2 3 1v2l11 3 8 2h20l8-1-3 2-8 2h-16l-16-4-8-3-5-5-1-4z" fill="#5C6265"/>
<path transform="translate(618,64)" d="m0 0 18 1 21 6 5 2 1 8h-2l-2-6-7-2v-2l-5 1-29-7z" fill="#343D43"/>
<path transform="translate(320,243)" d="m0 0 2 1-5 5-12 11-9 9-4 1 2-5 8-9 6-4 6-5z" fill="#8D0136"/>
<path transform="translate(427,246)" d="m0 0 10 4 17 5 13 2 28 1v1l-8 1h-17l-19-3-17-5-6-3z" fill="#4D0526"/>
<path transform="translate(585,221)" d="m0 0 9 3 21 11 15 10 11 9-4 1-5-4-5-5-19-12-15-8-8-4z" fill="#4A0625"/>
<path transform="translate(700,376)" d="m0 0 3 1-3 2-32 7-10 4h-2l1-4 16-5 16-3z" fill="#313940"/>
<path transform="translate(249,622)" d="m0 0h2l9 27 4 10 2 3v3h-2l-9-19-6-18z" fill="#63696C"/>
<path transform="translate(355,584)" d="m0 0 9 1 10 3v1h-7l-8-1h-34v-2l24-1z" fill="#7C0232"/>
<path transform="translate(456,566)" d="m0 0h3v2l-21 9-14 4-8 1h-13v-1l21-2v-2l15-4z" fill="#60676A"/>
<path transform="translate(452,534)" d="m0 0 3 1-6 2v2l-10 5h-2v2l-13 5h-13l-1-2 13-2 12-4z" fill="#ABABAD"/>
<path transform="translate(378,529)" d="m0 0h10l5 3 3 3 3 6-1 2-6-8-4-2-13-1-23 1 3-2z" fill="#AEB4B5"/>
<path transform="translate(530,391)" d="m0 0h2v2l-12 5-27 16-8 6-2-1 8-7 10-6 16-9 10-5z" fill="#1C262E"/>
<path transform="translate(365,555)" d="m0 0 3 1-9 9-9 4-9 2h-6v-1l11-2v-2l9-4 7-6z" fill="#830233"/>
<path transform="translate(854,399)" d="m0 0h18l6 3 3 5-3-1v-2l-5-1h-24l-4 3 2-4z" fill="#394147"/>
<path transform="translate(446,566)" d="m0 0 4 1-13 5h-3v2l-8 2-11 1h-13l-6-3 2-1 6 2 13-1 18-4z" fill="#D7DCDD"/>
<path transform="translate(266,606)" d="m0 0h2l1 3v7l3 1 3 11 3 6v4h2v3h2l3 9-4-2-4-9-4-10-1-5h-2l-4-16z" fill="#440724"/>
<path transform="translate(264,572)" d="m0 0h9l16 5v1l-8-1-10-3h-6l-2 2v14h2l3 16h-2l-3-9-2-10v-14z" fill="#550528"/>
<path transform="translate(569,563)" d="m0 0 2 1-4 5-15 10-7 3-3 1h-10l-3-2 13-1 12-5 11-9z" fill="#60676A"/>
<path transform="translate(409,358)" d="m0 0h7l21 7 2 2-10-2-5-2-5-1v-2l-16 2v2l-4 2h-6l3-3z" fill="#8F0136"/>
<path transform="translate(425,233)" d="m0 0h30l12 1v1h-39l-4 3 1 6 1 2-4-2-1-7z" fill="#4D0526"/>
<path transform="translate(385,590)" d="m0 0 4 1 12 5h14l15-4 4 1-11 4-10 2h-10l-12-4-6-3z" fill="#210F1B"/>
<path transform="translate(536,246)" d="m0 0 4 1h-3v3l-19 7-4 1h-14v-1l16-3 16-6z" fill="#880235"/>
<path transform="translate(269,609)" d="m0 0 2 3 4 5 4 12 3 7-1 3-3-1-6-16-1-5-2-1z" fill="#AA0238"/>
<path transform="translate(351,582)" d="m0 0h9l11 3 12 6 1 2-5-1-5-3-10-3-9-1-6 1h-8l1-2z" fill="#550428"/>
<path transform="translate(534,361)" d="m0 0h14l6 4-3 1-7-2v-2l-10 2-18 10-9 6-2-1 10-7 13-8z" fill="#8B0136"/>
<path transform="translate(522,233)" d="m0 0 18 1 6 3-1 4-2 1-1-4-3-1-46-2v-1z" fill="#460624"/>
<path transform="translate(384,592)" d="m0 0 5 1 10 4 4 1h18v2l-3 1-13 1-15-5-6-3z" fill="#4B0525"/>
<path transform="translate(489,529)" d="m0 0 5 2 15 10 7 4 1 3-7-2-10-7v-2l-5-1-6-4z" fill="#B1B2B3"/>
<path transform="translate(263,766)" d="m0 0h10v1l-10 1v2l-16 2h-14l4-2z" fill="#4B5257"/>
<path transform="translate(474,527)" d="m0 0 9 1v1l-11 2-23 11-8 4-4-1 2-2 9-3 19-10z" fill="#DBE0E1"/>
<path transform="translate(390,571)" d="m0 0 4 1 8 4h18v3l-7 1h-11l-9-5z" fill="#B0B1B3"/>
<path transform="translate(493,212)" d="m0 0h3l-3 11v9l29 1v1h-31l-2-2 1-9z" fill="#5C042A"/>
<path transform="translate(97,403)" d="m0 0h10l8 2v1h-17l-9 2-2 3v12l1 4-3-3-1-3v-7l3-7 5-3z" fill="#6C7073"/>
<path transform="translate(307,223)" d="m0 0 2 1-6 7h-2v2l-7 6-2 3-5 3-4 4-2-1 14-15 11-9z" fill="#474E53"/>
<path transform="translate(238,771)" d="m0 0h4v2l-11 4v5l3 1-2 1-6-3-2-2v-3l8-4z" fill="#1C262E"/>
<path transform="translate(465,584)" d="m0 0 29 2v2l3 1-25-2h-10l-11 2 1-2 6-2z" fill="#530427"/>
<path transform="translate(330,539)" d="m0 0h10l-3 2-22 8-8 4-1-2 4-1v-2l11-4z" fill="#C8CDCE"/>
<path transform="translate(303,319)" d="m0 0 4 4 6 7 9 4 13 1-1 2-8 1-14-5-9-10z" fill="#F7114C"/>
<path transform="translate(556,570)" d="m0 0 4 1-8 6-10 4h-9l-8-2v-1l18 1v-2l10-5z" fill="#ABABAD"/>
<path transform="translate(393,401)" d="m0 0m-1 1m-2 1h2l-1 3-14 10-9 7h-3v-2l11-8z" fill="#6E7679"/>
<path transform="translate(446,118)" d="m0 0 2 1-3 1v2l-3 2 1 9 4 6v2l4 2 2 5-7-6-7-10-1-5 3-6z" fill="#696F71"/>
<path transform="translate(376,734)" d="m0 0 7 1 10 4 19 6v2l-7-1v-2l-13-2-11-4v-2l-5-1z" fill="#750330"/>
<path transform="translate(349,721)" d="m0 0 8 2 19 10v2l5 1-3 1-19-9-9-5z" fill="#68042D"/>
<path transform="translate(292,701)" d="m0 0 7 6 7 7 8 7 12 9 2 3-4-2-11-8-10-9-11-11z" fill="#5E6467"/>
<path transform="translate(371,549)" d="m0 0 5 1 6 5v2h2l9 11 3 5-6-2-1-4-4-3-2-4-8-7z" fill="#D5DADB"/>
<path transform="translate(554,366)" d="m0 0 6 2 6 5 4 2v2l6 2 8 4-3 1-6-2-13-8-5-4-3-2z" fill="#8B0135"/>
<path transform="translate(429,365)" d="m0 0 7 1 7 2 17 11 1 2-4-1-12-8-9-2-4-2v-2z" fill="#740330"/>
<path transform="translate(530,367)" d="m0 0 3 1-4 4-7 3-7 5-10 3 3-3 13-8z" fill="#2A0C1D"/>
<path transform="translate(518,572)" d="m0 0 11 3 14 1v3h-12l-7-2-6-3z" fill="#D4D8D9"/>
<path transform="translate(261,277)" d="m0 0 1 3-5 10-6 16-3 7-2 1 3-11 9-21z" fill="#6A6F72"/>
<path transform="translate(515,168)" d="m0 0h9l-1 3-25 2 1-3z" fill="#1C262E"/>
<path transform="translate(316,794)" d="m0 0h19l7 1v2h-23l-3-1z" fill="#384046"/>
<path transform="translate(513,547)" d="m0 0 12 3 1 2 12 3 16 1-1 2h-9l-16-3-14-6z" fill="#C2C6C7"/>
<path transform="translate(488,231)" d="m0 0 5 3 46 2v1h-47l-4-4z" fill="#210F1B"/>
<path transform="translate(302,679)" d="m0 0 2 1v2l4 2 10 9v3h2l6 7h-3l-7-7v-2h-2v-2h-2v-2h-2v-2h-2l-1-2-5-3z" fill="#5C052A"/>
<path transform="translate(844,406)" d="m0 0h1v11l2 7 5 3 11 1v2l-14-1-5-5-1-2v-14z" fill="#6B7174"/>
<path transform="translate(333,244)" d="m0 0 3 1-9 7-6 4h-2v2h-2v2l-3-1 2-3h2l1-3 5-4z" fill="#F7114C"/>
<path transform="translate(424,232)" d="m0 0h27v1l-26 1-3 3 1 7 4 2 4 5-4-1-5-3-3-7 2-5z" fill="#810233"/>
<path transform="translate(627,757)" d="m0 0h11l22 2v1l-8 1h-16l-1-2-8-1z" fill="#454C52"/>
<path transform="translate(705,298)" d="m0 0 2 2 6 21v2l-3-1-6-21z" fill="#2D363D"/>
<path transform="translate(662,74)" d="m0 0h2l1 6-8 17-2 1 2-11 4-6h2z" fill="#495055"/>
<path transform="translate(348,504)" d="m0 0h16v1l-25 3-3 2h-3v2l-5 2 5-6 6-3z" fill="#686D70"/>
<path transform="translate(712,788)" d="m0 0h7l-3 2-11 2-15 1 3-3z" fill="#323A41"/>
<path transform="translate(503,592)" d="m0 0 8 1 14 4 9 2v1l-15-1-10-3-3-1v-2z" fill="#880235"/>
<path transform="translate(387,570)" d="m0 0 4 2 5 4 6 3h11l11-1-3 2-7 1h-15l-8-5-4-4z" fill="#646C6F"/>
<path transform="translate(393,366)" d="m0 0 4 1-10 6-18 13-4 2v-2l16-12z" fill="#5E042A"/>
<path transform="translate(521,186)" d="m0 0 25 2 9 2v1h-15l-6-2-13-1z" fill="#1C262E"/>
<path transform="translate(417,185)" d="m0 0h17l-1 2-17 1-10 1-5-1v-1z" fill="#40474D"/>
<path transform="translate(356,759)" d="m0 0h3v2l-9 1-2 1h-21l2-2z" fill="#1C262E"/>
<path transform="translate(409,360)" d="m0 0h10v2l9 1 1 2-18-2-10 2 2-1v-2z" fill="#4D0526"/>
<path transform="translate(350,233)" d="m0 0 2 1v2l-5 4-3 3-8 2 1-4 5-1v-2h3v-2h3v-2z" fill="#F50F4A"/>
<path transform="translate(395,188)" d="m0 0h5l-1 3-9 2-8 1-4-3z" fill="#373F45"/>
<path transform="translate(453,149)" d="m0 0h3l7 9 5 13 1 5v8h-1l-3-14-4-10-8-10z" fill="#6A6F72"/>
<path transform="translate(492,750)" d="m0 0h18v1l-12 2-11 1h-14v-1l11-1z" fill="#440724"/>
<path transform="translate(503,383)" d="m0 0h2v2h-2l-1 3h-3l-2 4-9 2h-8v-1l12-3z" fill="#260D1C"/>
<path transform="translate(560,594)" d="m0 0 3 1-3 3-14 3h-9l-3-2 17-2z" fill="#7A0332"/>
<path transform="translate(470,558)" d="m0 0h15v1l-16 3-11 4-2-1 3-3z" fill="#ACABAD"/>
<path transform="translate(364,549)" d="m0 0h7l10 9 4 3 2 4 3 2-1 4-12-14-7-6-6-1z" fill="#A8A9AB"/>
<path transform="translate(542,240)" d="m0 0 1 3-4 3-17 7h-3v-2l15-6z" fill="#490625"/>
<path transform="translate(240,543)" d="m0 0 3 1-4 4 1 15v15h-1l-2-21v-13z" fill="#6D7174"/>
<path transform="translate(879,495)" d="m0 0 2 2v6l-4 6-5 4-6 1 3-3 4-3h2l2-4z" fill="#3E464C"/>
<path transform="translate(895,447)" d="m0 0m-1 1m-1 1m-1 1m-2 1 2 1-4 4v3l-2 1 1 4 2 4-4-2-5-5z" fill="#DA4B62"/>
<path transform="translate(512,376)" d="m0 0 2 1-24 15-4-1 8-4 7-6 9-4z" fill="#64032B"/>
<path transform="translate(477,556)" d="m0 0h7l13 5 1 3-9-3-4-1v-2l-13 1 2-2z" fill="#B6B8B9"/>
<path transform="translate(881,409)" d="m0 0h1v10l-4 6-4 3-9 1 4-3 8-2 2-6z" fill="#42494F"/>
<path transform="translate(466,230)" d="m0 0 1 4h-12l-4-1-22-1v-1h25l9 1z" fill="#930137"/>
<path transform="translate(543,233)" d="m0 0 4 1 2 2-1 6-7 6-4 1v-2l8-7v-6z" fill="#8F0136"/>
<path transform="translate(256,788)" d="m0 0 14 1 1 3h7v1h-8l-14-2z" fill="#41484E"/>
<path transform="translate(700,376)" d="m0 0 3 1-3 2-15 3h-7l2-2 12-3z" fill="#2F383F"/>
<path transform="translate(348,533)" d="m0 0h6v2l-7 2h-4v2h-10l3-2z" fill="#BCC0C1"/>
<path transform="translate(396,368)" d="m0 0 2 1-6 4-1 2-8 4-4 3-2-1 5-5 4-3z" fill="#260D1C"/>
<path transform="translate(538,363)" d="m0 0h6l10 3 3 3 3 2v2l-5-2-12-5v-2h-5z" fill="#420823"/>
<path transform="translate(560,373)" d="m0 0 6 2 10 7 9 4v2l-9-3-12-8z" fill="#4B0625"/>
<path transform="translate(247,313)" d="m0 0 1 4-1 1-3 20-2 2v-8l4-18z" fill="#61676A"/>
<path transform="translate(613,738)" d="m0 0m-1 1v3l-10 6-7 3 2-4 10-6z" fill="#2A333A"/>
<path transform="translate(274,359)" d="m0 0 10 1 16 4v1h-10l-7-2v-2l-9-1z" fill="#770331"/>
<path transform="translate(230,772)" d="m0 0 2 1-6 3h-2l3 5 7 3-4 1-9-5v-4z" fill="#6A7073"/>
<path transform="translate(256,645)" d="m0 0h2l6 14 2 3v3h-2l-8-17z" fill="#62686B"/>
<path transform="translate(367,547)" d="m0 0 4 2-7 1-12 5-4-1 7-4z" fill="#C2C5C6"/>
<path transform="translate(461,531)" d="m0 0 4 1-21 11-3-1 6-3h2v-2z" fill="#BEC2C3"/>
<path transform="translate(391,597)" d="m0 0 10 3 14 2v1h-16l-8-3z" fill="#870235"/>
<path transform="translate(307,583)" d="m0 0 10 1 8 2v1h-14l-8-2z" fill="#880235"/>
<path transform="translate(545,497)" d="m0 0 10 2 17 3-3 2-18-3-6-3z" fill="#707578"/>
<path transform="translate(474,524)" d="m0 0h6v1l-9 3-4 1v2l-12 3 3-3 10-5z" fill="#A4A1A3"/>
<path transform="translate(377,379)" d="m0 0 2 1-6 5h-2l-2 4-5 3-6 1-4-2 10-2z" fill="#3B0922"/>
<path transform="translate(274,624)" d="m0 0 5 5 3 7-1 3-3-1-4-10z" fill="#AF0239"/>
<path transform="translate(296,550)" d="m0 0 1 2-7 3 1 4 4 4-5-1-5-5 4-4z" fill="#5B6164"/>
<path transform="translate(441,371)" d="m0 0 5 1 11 7 3 2v2l-5-2-9-6-5-3z" fill="#4A0625"/>
<path transform="translate(291,270)" d="m0 0 1 2-3 7h-2l-1 5-4 5 1-6z" fill="#6B032D"/>
<path transform="translate(359,221)" d="m0 0 4 1-13 6-9 2 3-3z" fill="#860234"/>
<path transform="translate(560,216)" d="m0 0h7l18 5v1h-8l-7-3-10-2z" fill="#830234"/>
<path transform="translate(276,634)" d="m0 0h2v4h2v3h2l3 9-4-2-4-9z" fill="#530627"/>
<path transform="translate(375,531)" d="m0 0 6 1-1 2h-26l2-2z" fill="#C6C9CA"/>
<path transform="translate(252,377)" d="m0 0 12 1 1 3 3 1-9-1-7-2z" fill="#373E45"/>
<path transform="translate(311,260)" d="m0 0h4v2h-2l-2 6-4 4v-7z" fill="#F5104B"/>
<path transform="translate(160,452)" d="m0 0h9l3 1-2 4-3 2-2-4-5-1z" fill="#7A8083"/>
<path transform="translate(342,202)" d="m0 0v3l-4 4-7 1 1-3z" fill="#3B4349"/>
<path transform="translate(300,551)" d="m0 0 3 1-7 4v2l3 3-5-1-3-2 2-4z" fill="#9F989B"/>
<path transform="translate(311,544)" d="m0 0 1 3-12 5h-3l1-3z" fill="#61696C"/>
<path transform="translate(489,529)" d="m0 0 5 2 9 6-3 1-7-3-4-4z" fill="#AEADAF"/>
<path transform="translate(345,386)" d="m0 0 4 1 3 1h13l-1 2-3 1h-9l-7-3z" fill="#550428"/>
<path transform="translate(238,362)" d="m0 0 2 3v11l8 1v1l-9-1-3-2z" fill="#6A6F72"/>
<path transform="translate(284,764)" d="m0 0h9l-2 2-3 1h-9l-6-1v-1z" fill="#464E53"/>
<path transform="translate(310,719)" d="m0 0 4 2 12 9 2 3-4-2-11-8-3-2z" fill="#6D7274"/>
<path transform="translate(456,536)" d="m0 0v3l-15 7-4-1 2-2 9-3z" fill="#D8DDDE"/>
<path transform="translate(341,386)" d="m0 0 9 3 9 4v1h-7l-10-6z" fill="#210F1B"/>
<path transform="translate(323,377)" d="m0 0 5 1 13 7-3 1-8-4-7-3z" fill="#210F1B"/>
<path transform="translate(717,368)" d="m0 0 2 4-3 3-14 3 3-3 9-2z" fill="#40484E"/>
<path transform="translate(580,222)" d="m0 0h6l10 5 2 3-9-3-9-4z" fill="#8F0136"/>
<path transform="translate(265,573)" d="m0 0h6v1h-5l-1 3-1 13h-1l-1-5v-9z" fill="#7A0332"/>
<path transform="translate(478,522)" d="m0 0 7 1 3 2v2l5 2 1 2-5-2-9-4-2-1z" fill="#636B6E"/>
<path transform="translate(895,455)" d="m0 0 7 2-5 4-4 2-2-3 4-2z" fill="#9F0139"/>
<path transform="translate(460,381)" d="m0 0 5 1 10 6 3 2-7-1-11-7z" fill="#890235"/>
<path transform="translate(448,209)" d="m0 0h20l1 1v11h-1l-1-9-1-1-18-1z" fill="#510427"/>
<path transform="translate(624,137)" d="m0 0 2 1-9 7-7 4-2-1 10-7z" fill="#64696C"/>
<path transform="translate(384,592)" d="m0 0 5 1 10 4-1 2-5-1-9-4z" fill="#490625"/>
<path transform="translate(518,572)" d="m0 0 11 3 2 1v2h-6l-7-4z" fill="#D2D7D8"/>
<path transform="translate(302,256)" d="m0 0v3l-4 6-2 4-4 1 2-5z" fill="#5F042B"/>
<path transform="translate(540,74)" d="m0 0h4l-2 4-11 2 5-4z" fill="#3B4248"/>
<path transform="translate(299,553)" d="m0 0 2 1-2 4 8 4-4 1-4-1-4-4 2-4z" fill="#ACB0B1"/>
<path transform="translate(705,298)" d="m0 0 2 2 3 11-3-1-3-9z" fill="#373F45"/>
<path transform="translate(499,170)" d="m0 0h24v1l-25 2z" fill="#6E7377"/>
<path transform="translate(302,679)" d="m0 0 2 1v2l4 2 5 5-1 3v-2h-2v-2h-2l-1-2-5-3z" fill="#3B0921"/>
<path transform="translate(294,552)" d="m0 0 3 1-5 3-1 2 5 2 3 2-7-1-3-3 1-4z" fill="#826970"/>
<path transform="translate(371,549)" d="m0 0 5 1 6 5-1 4-7-7z" fill="#CCD0D1"/>
<path transform="translate(345,385)" d="m0 0 7 1 8 1h5l-2 2h-11l-7-3z" fill="#870234"/>
<path transform="translate(517,374)" d="m0 0 2 1-4 5-10 3 3-3z" fill="#2D0C1E"/>
<path transform="translate(400,361)" d="m0 0h6l-3 1v2l-4 2h-6l3-3z" fill="#7C0231"/>
<path transform="translate(412,745)" d="m0 0 19 2v1l-8 1-11-2z" fill="#8F0136"/>
<path transform="translate(462,586)" d="m0 0h10v1l-9 1-8 3-3-1h2v-2z" fill="#780331"/>
<path transform="translate(497,561)" d="m0 0 6 2 4 4v2l-5-2-4-2z" fill="#C1C3C4"/>
<path transform="translate(492,750)" d="m0 0m-6 1h6v2l-5 1h-14v-1l11-1z" fill="#480625"/>
<path transform="translate(302,676)" d="m0 0 6 5 5 6-1 2-8-7-2-3z" fill="#830234"/>
<path transform="translate(485,560)" d="m0 0 7 1 8 4v2l-5-2-10-3z" fill="#5F6669"/>
<path transform="translate(495,258)" d="m0 0h13v1l-10 2h-6z" fill="#900136"/>
<path transform="translate(234,783)" d="m0 0 8 1 2 4-10-2z" fill="#2D363D"/>
<path transform="translate(368,552)" d="m0 0 7 2v3l-3-1h-9l2-3z" fill="#666064"/>
<path transform="translate(496,387)" d="m0 0 2 1-6 5-4 1h-8v-1l12-3z" fill="#370921"/>
<path transform="translate(350,233)" d="m0 0 2 1v2l-6 4h-4v-2h3v-2h3v-2z" fill="#EE0140"/>
<path transform="translate(525,167)" d="m0 0h9l-1 3h-9z" fill="#394147"/>
<path transform="translate(652,72)" d="m0 0 10 1 1 8h-2l-2-6-7-2z" fill="#232D34"/>
<path transform="translate(322,702)" d="m0 0 6 4 6 5-2 2-6-5v-2l-4-2z" fill="#210F1B"/>
<path transform="translate(294,668)" d="m0 0 4 2 4 6v3h-2l-2-4-3-3z" fill="#430724"/>
<path transform="translate(691,653)" d="m0 0v3l-5 8h-2l2-5z" fill="#1C262E"/>
<path transform="translate(567,592)" d="m0 0 4 1-1 2-6 2-4-1z" fill="#800234"/>
<path transform="translate(437,575)" d="m0 0 3 1-8 3-8-1v-1z" fill="#60676A"/>
<path transform="translate(382,559)" d="m0 0 3 2 2 4 3 2-1 4-7-8z" fill="#ACACAE"/>
<path transform="translate(312,220)" d="m0 0 2 1-6 7h-2v2l-3-1 7-8z" fill="#2A323A"/>
<path transform="translate(363,196)" d="m0 0m-4 1h4v2l-9 3h-5l4-3z" fill="#1C262E"/>
<path transform="translate(421,461)" d="m0 0h2l4 8-1 5-2-4z" fill="#6A6E71"/>
<path transform="translate(881,409)" d="m0 0h1v10l-4 6-1-3 3-6z" fill="#373F45"/>
<path transform="translate(445,217)" d="m0 0 10 3 4 2-7 1-8-3z" fill="#EE0140"/>
</svg>
